<svg xmlns="http://www.w3.org/2000/svg" width="60.516" height="26.035" viewBox="0 0 60.516 26.035">
  <g id="Group_77" data-name="Group 77" transform="translate(-7300.857 803.93)">
    <g id="_01" data-name="01" transform="translate(7300.857 -803.93)">
      <path id="Path_65" data-name="Path 65" d="M26.28,5.221A11.871,11.871,0,0,0,21.109,1.7,21.029,21.029,0,0,0,6.237,1.682a11.871,11.871,0,0,0-5.183,3.5A4.355,4.355,0,0,0,.212,9.319a2.252,2.252,0,0,0,2.165,1.5l3.413,0h0a2.32,2.32,0,0,0,1.755-.785,2.089,2.089,0,0,0,.489-1.769c0-.018-.008-.037-.013-.055l-.18-.67A14.4,14.4,0,0,1,13.666,6.22a14.782,14.782,0,0,1,5.82,1.347l-.182.666c-.005.019-.01.038-.013.057a2.089,2.089,0,0,0,.483,1.77,2.32,2.32,0,0,0,1.756.789l3.413,0h0a2.252,2.252,0,0,0,2.165-1.491A4.359,4.359,0,0,0,26.28,5.221Zm-.721,3.659a.64.64,0,0,1-.614.407l-3.414,0a.665.665,0,0,1-.5-.225A.57.57,0,0,1,20.89,8.6l.34-1.239a.769.769,0,0,0-.377-.874,16.28,16.28,0,0,0-7.178-1.828H13.61a15.964,15.964,0,0,0-7.13,1.8.769.769,0,0,0-.377.87l.333,1.241a.571.571,0,0,1-.139.464.665.665,0,0,1-.5.223l-3.414,0a.64.64,0,0,1-.613-.409,2.867,2.867,0,0,1,.606-2.734C4.231,3.667,8.971,1.9,13.649,1.9h.026C18.357,1.9,23.1,3.689,24.961,6.141A2.871,2.871,0,0,1,25.559,8.881Z" transform="translate(0 -0.334)" fill="#f48635"/>
      <path id="Path_66" data-name="Path 66" d="M24.474,24.18l-2.545-2.564a.832.832,0,0,0-.59-.243H19.693V20.307a.816.816,0,0,0-1.631,0v1.066H15.451V20.307a.816.816,0,0,0-1.631,0v1.066H12.175a.832.832,0,0,0-.59.243L9.039,24.18A10.49,10.49,0,0,0,5.945,31.6v3.218a.8.8,0,0,0,.815.782H26.753a.8.8,0,0,0,.815-.782V31.6A10.489,10.489,0,0,0,24.474,24.18Zm-16.9,9.859V31.6a8.965,8.965,0,0,1,2.645-6.344l2.3-2.321h8.464l2.3,2.321A8.965,8.965,0,0,1,25.938,31.6v2.436Z" transform="translate(-3.093 -10.318)" fill="#f48635"/>
      <path id="Path_67" data-name="Path 67" d="M23.854,30.012a4.1,4.1,0,1,0,4.268,4.094A4.188,4.188,0,0,0,23.854,30.012Zm0,6.624a2.532,2.532,0,1,1,2.637-2.53A2.588,2.588,0,0,1,23.854,36.636Z" transform="translate(-10.19 -15.774)" fill="#f48635"/>
    </g>
    <g id="mail-send-svgrepo-com" transform="translate(7335.083 -799.541)">
      <path id="Path_70" data-name="Path 70" d="M9.975,24.287H21.584a4.644,4.644,0,0,0,4.644-4.644V8.034A4.644,4.644,0,0,0,21.584,3.39H7.653A4.644,4.644,0,0,0,3.01,8.034v5.8" transform="translate(-0.688 -3.39)" fill="none" stroke="#f38635" stroke-linecap="round" stroke-linejoin="round" stroke-width="1.5"/>
      <path id="Path_71" data-name="Path 71" d="M1.01,18.39H12.619" transform="translate(-1.01 -0.976)" fill="none" stroke="#f38635" stroke-linecap="round" stroke-linejoin="round" stroke-width="1.5"/>
      <path id="Path_72" data-name="Path 72" d="M1.01,15.39H5.653" transform="translate(-1.01 -1.459)" fill="none" stroke="#f38635" stroke-linecap="round" stroke-linejoin="round" stroke-width="1.5"/>
      <path id="Path_73" data-name="Path 73" d="M25.173,5.42C18.66,17.772,10.3,17.76,3.789,5.42" transform="translate(-0.563 -3.063)" fill="none" stroke="#f38635" stroke-linecap="round" stroke-linejoin="round" stroke-width="1.5"/>
    </g>
  </g>
</svg>
