<?xml version="1.0" encoding="UTF-8"?>
<svg id="BE_Civil_Engineering" data-name="BE Civil Engineering" xmlns="http://www.w3.org/2000/svg" viewBox="0 0 256 256">
  <path d="M210.67,38.54H45.33c-7.69.02-13.91,6.24-13.92,13.92v121.43c0,7.69,6.23,13.91,13.92,13.93h59.11l-7.98,23.56h-19.83c-1.68,0-3.05,1.37-3.05,3.05s1.37,3.05,3.05,3.05h102.76c1.68,0,3.05-1.37,3.05-3.05s-1.37-3.05-3.05-3.05h-19.83l-7.98-23.56h49.2s0,0,0,0h9.9c7.69-.02,13.91-6.24,13.92-13.93V52.46c0-7.69-6.23-13.91-13.92-13.93ZM73.63,65.64v97c-.75-.51-1.54-.97-2.41-1.33-4.31-1.79-9.15-1.22-12.93,1.32v-96.99c0-4.24,3.43-7.67,7.66-7.67s7.68,3.43,7.68,7.67c0,0,0,0,0,0ZM65.95,181.7c-3.1,0-5.9-1.87-7.08-4.73-1.19-2.87-.53-6.17,1.67-8.36,2.19-2.19,5.49-2.85,8.35-1.66,2.87,1.19,4.74,3.99,4.74,7.08,0,1.68,1.36,3.05,3.04,3.05s3.06-1.37,3.06-3.05c0,0,0,0,0,0,0,0,0,0,0,0v-105.33h117.99v113.02h-49.79c-.43-.09-.86-.09-1.29,0h-37.16c-.52-.13-1.05-.14-1.56,0h-41.9s-.04,0-.07,0ZM153.1,211.36h-50.21l7.98-23.56h34.26l7.97,23.56ZM218.49,173.89c0,4.31-3.51,7.81-7.82,7.82h-6.86v-116.07c0-.81-.32-1.59-.89-2.16-.58-.57-1.35-.89-2.16-.89h-121.38c-1.39-6.14-6.87-10.72-13.43-10.72-7.61,0-13.76,6.17-13.76,13.77v108.39c0,.12.02.24.03.36.04,1.66.35,3.32,1.01,4.91.36.86.82,1.65,1.33,2.41h-9.23c-4.31,0-7.81-3.51-7.82-7.82V52.46c0-4.32,3.5-7.82,7.82-7.82h165.35c4.32,0,7.81,3.51,7.82,7.82v121.43Z"/>
  <path d="M136.54,170.76h0s0,0,0,0h32.39s0,0,0,0h12.86c.81,0,1.59-.33,2.16-.89.57-.58.89-1.35.89-2.16v-47.33c0-.81-.33-1.59-.89-2.16-.57-.57-1.35-.89-2.16-.89h-11.66v-19.02c0-.81-.32-1.59-.89-2.16-.58-.57-1.35-.89-2.16-.89h-27.52v-12.55c0-.81-.33-1.58-.89-2.16-.57-.57-1.35-.89-2.16-.89h-40.91c-1.68,0-3.05,1.37-3.05,3.05v85c0,1.69,1.37,3.06,3.05,3.06h40.91ZM152.46,164.66v-23.08s13.41,0,13.41,0v23.08s-13.41,0-13.41,0ZM178.76,164.66h-6.77v-26.13c0-.81-.33-1.59-.89-2.16-.57-.57-1.35-.89-2.16-.89h-19.52c-1.68,0-3.05,1.37-3.05,3.05v26.13h-6.77v-1.65s0-39.59,0-39.59h27.51s.01,0,.02,0h11.64v41.24ZM164.05,101.36v15.96h-24.46v-15.96h24.46ZM98.69,85.75h34.8v78.91h-34.8v-78.91Z"/>
  <path d="M123.15,90.37h-14.14c-1.68,0-3.04,1.37-3.04,3.05v16.8c0,1.69,1.36,3.06,3.04,3.06h14.14c.81,0,1.59-.33,2.16-.89.57-.58.89-1.35.89-2.16v-16.8c0-.81-.33-1.59-.89-2.16-.57-.57-1.35-.89-2.16-.89ZM112.07,107.19v-10.71h8.03v10.71s-8.03,0-8.03,0Z"/>
  <path d="M123.15,118.86h-14.14c-1.68,0-3.04,1.37-3.04,3.05s1.36,3.05,3.04,3.05h14.14c1.68,0,3.05-1.37,3.05-3.05s-1.37-3.05-3.05-3.05Z"/>
  <path d="M123.15,130.55h-14.14c-1.68,0-3.04,1.36-3.04,3.05s1.36,3.05,3.04,3.05h14.14c1.68,0,3.05-1.37,3.05-3.05s-1.37-3.05-3.05-3.05Z"/>
  <path d="M123.15,142.23h-14.14c-1.68,0-3.04,1.37-3.04,3.05s1.36,3.05,3.04,3.05h14.14c1.68,0,3.05-1.37,3.05-3.05s-1.37-3.05-3.05-3.05Z"/>
  <path d="M123.15,153.92h-14.14c-1.68,0-3.04,1.36-3.04,3.04s1.36,3.06,3.04,3.06h14.14c1.68,0,3.05-1.37,3.05-3.06s-1.37-3.04-3.05-3.04Z"/>
</svg>