<?xml version="1.0" encoding="UTF-8"?>
<svg id="BE_Civil_Engineering" data-name="BE Civil Engineering" xmlns="http://www.w3.org/2000/svg" viewBox="0 0 256 256">
  <path d="M200.87,46.3h-35.31v-13.87c0-5.1-4.15-9.24-9.25-9.24h-56.84c-5.1,0-9.25,4.15-9.25,9.24v13.87h-35.1c-11.3,0-20.49,9.19-20.49,20.49v132.2c0,1.92,1.66,3.21,3.21,3.21h47.47c1.71,0,3.21-1.4,3.21-3,0-1.92-1.66-3.21-3.21-3.21h-44.26V66.79c0-7.76,6.31-14.07,14.07-14.07h35.1v13.66c0,5.1,4.15,9.24,9.25,9.24h6.16v14.07c0,3.6,2.93,6.54,6.54,6.54h12.41v14.28c0,1.92,1.66,3.21,3.21,3.21s2.94-1.31,3.2-3.11v-14.38h12.83c3.55,0,6.33-2.87,6.33-6.54v-14.07h6.37c4.9,0,9.04-4.23,9.04-9.24v-13.66h35.31c7.76,0,14.07,6.31,14.07,14.07v129h-45.09c-1.92,0-3.21,1.66-3.21,3.21,0,1.92,1.66,3.21,3.21,3.21h48.3c1.86,0,3.21-1.35,3.21-3.21V66.79c0-11.3-9.19-20.49-20.49-20.49ZM143.74,75.62v14.07s-.09.12-.12.13h-31.43s-.12-.09-.13-.12v-14.07h31.69ZM96.65,48.38v-16.15c0-1.19.78-2.42,2.12-2.75v.13h57.55c1.39,0,2.83,1.06,2.83,2.83v33.73c0,1.39-1.06,2.83-2.83,2.83h-56.84c-1.39,0-2.83-1.06-2.83-2.83v-15.56c.14-.36.21-.73.21-1.1,0-.39-.07-.77-.21-1.13Z"/>
  <path d="M188.23,163.43c.77-.27,1.4-.86,1.71-1.63.33-.79.29-1.69-.08-2.44l-9.79-22.49c-3.69-8.46-10.25-15.1-18.47-18.69l-16.51-7.31c-1.55-.51-2.97-.42-4.13.27-1.18.71-1.96,1.91-2.21,3.46-.59,6.28-6.09,9.14-10.95,9.14-4.54,0-10.14-2.4-10.95-9.08,0-1.37-.83-2.69-2.22-3.52-1.33-.8-3.05-.7-4.19-.25l-16.46,7.29c-8.33,3.85-14.89,10.48-18.47,18.68l-9.81,22.54c-.54,1.63.1,3.23,1.62,3.99l20.69,9.82c1.68.56,3.44-.11,4.2-1.63l2.21-4.85c3.81,21.47-1.22,51.89-2.31,57.98-.25,2.03.34,4.05,1.62,5.54,1.4,1.64,3.29,2.54,5.33,2.54h57.88c2.03,0,3.92-.9,5.29-2.5,1.3-1.3,1.91-3.34,1.66-5.61-3.89-24.2-4.68-44.09-2.33-57.78l1.83,4.49c.82,1.63,2.74,2.34,4.26,1.57l20.58-9.56ZM155.62,163.25c-4.62,21.79.26,53.36,1.87,62.52l.06.19c.05.09-.07.22-.08.22-.16.16-.21.21-.54.21h-57.88c-.22,0-.31-.02-.4-.08-.01-.04-.03-.08-.04-.12-.05-.13-.09-.26-.1-.49,1.62-9.24,6.47-40.72,1.86-62.43-.47-2.59-2.83-4.54-5.49-4.54h-1.04l-.17.02c-1.97.49-3.55,1.73-4.22,3.31l-1.79,3.93-14.96-6.91,8.47-19.57c2.83-6.87,8.24-12.35,15.24-15.44l14.4-6.31c2.06,8.71,9.91,12.62,16.96,12.62s14.85-3.96,16.96-12.62l14.4,6.31c6.81,3.09,12.22,8.58,15.26,15.46l8.67,19.77-14.97,6.91-1.99-4.15c-1.15-2.53-3.95-3.83-6.64-3.09-1.89.47-3.37,2.12-3.85,4.29Z"/>
</svg>